# xmcd
#
# Track frame offsets:
#	150
#	14286
#	31093
#	44669
#	63392
#	82451
#	105757
#	121356
#	136251
#	150923
#	168165
#	180039
#	193458
#	211393
#	227348
#	243467
#	269289
#	285563
#
# Disc length: 4024 seconds
#
# Revision: 0
# Processed by: cddbd v1.5.2PL0 Copyright (c) Steve Scherf et al.
# Submitted via: dBpowerAMP V4.0
#
DISCID=ea0fb612
DTITLE=The Lost Blues - The Lost Blues
DYEAR=2000
DGENRE=Blues
TTITLE0=The Bounce
TTITLE1=Lain Tlyin
TTITLE2=Days Olosd
TTITLE3=Rack Em Up
TTITLE4=What Good Can Drinhy Do
TTITLE5=Hell Hounn
TTITLE6=Guitar Word
TTITLE7=Dust My Blues
TTITLE8=Cadillac Baby
TTITLE9=Love Slippedin
TTITLE10=Roogie In The Dark
TTITLE11=Blues On The Moon
TTITLE12=Open Up Your Back Door
TTITLE13=Matchbox
TTITLE14=Back Forarter Of Your Love
TTITLE15=Me And Bobby
TTITLE16=Got To Leave This Woman
TTITLE17=Monday Woman
EXTD=
EXTT0=
EXTT1=
EXTT2=
EXTT3=
EXTT4=
EXTT5=
EXTT6=
EXTT7=
EXTT8=
EXTT9=
EXTT10=
EXTT11=
EXTT12=
EXTT13=
EXTT14=
EXTT15=
EXTT16=
EXTT17=
PLAYORDER=
